<?xml version="1.0" encoding="utf-8"?>
<!-- Generator: Adobe Illustrator 27.0.0, SVG Export Plug-In . SVG Version: 6.00 Build 0)  -->
<svg version="1.1" id="Layer_1" xmlns="http://www.w3.org/2000/svg" xmlns:xlink="http://www.w3.org/1999/xlink" x="0px" y="0px"
	 viewBox="0 0 29.6 26" style="enable-background:new 0 0 29.6 26;" xml:space="preserve">
<style type="text/css">
	.st0{fill:#19A57F;}
	.st1{fill:#2A58A4;}
</style>
<g id="democrance-logo" transform="translate(445.002 -546.425)">
	<g id="Symbols" transform="translate(-445.002 546.425)">
		<g id="navbar">
			<g id="logo_1_">
				<g id="Group_3100">
					<g id="Group_3099">
						<g id="logo-w_8_">
							<g id="logo_10_">
								<path id="Fill-1_8_" class="st0" d="M8.2,23.3l1-0.3c0.4-0.2,0.9-0.4,1.3-0.7c-0.1-0.6-0.1-1.3-0.1-1.9
									c-0.5,0.4-1.1,0.8-1.8,1.1l-0.4,0.3L7.6,22c-0.4,0.2-0.6,0.6-0.4,1v0.1c0.2,0.4,0.6,0.6,1,0.4C8.1,23.4,8.1,23.4,8.2,23.3
									C8.2,23.4,8.2,23.4,8.2,23.3L8.2,23.3"/>
								<path id="Fill-3_8_" class="st0" d="M3.9,10l-0.4,0.3l-0.5,0.2c0,0-0.1,0-0.1,0.1l0,0H2.8c-0.2,0.1-0.3,0.2-0.4,0.4
									c-0.1,0.2-0.1,0.4,0,0.6l0.1,0.1c0.2,0.4,0.6,0.5,1,0.3l1-0.4c0.8-0.3,1.5-0.4,2.4-0.4c-0.5-0.4-1-1-1.4-1.5
									C4.9,9.7,4.4,9.8,3.9,10"/>
								<g id="Group-7_8_" transform="translate(21.329 0.198)">
									<path id="Fill-5_8_" class="st0" d="M-3.1,3.3c-0.1-0.5-0.3-1-0.5-1.5l-0.3-1c0,0,0-0.1-0.1-0.1l0,0l0,0V0.7
										c-0.2-0.3-0.6-0.5-1-0.4v0.1c-0.4,0.2-0.5,0.6-0.3,1l0.4,1c0.3,0.7,0.4,1.4,0.4,2.2C-4.1,4-3.7,3.6-3.1,3.3"/>
								</g>
								<path id="Fill-8_8_" class="st0" d="M10.8,11.4c0.1-0.3,0.2-0.4,0.3-0.7c0.1-0.1,0.1-0.3,0.1-0.4c0-0.1,0-0.1,0.1-0.1h-0.3
									c-0.5-0.1-1-0.2-1.5-0.3C9,9.7,8.6,9.5,8.3,9.2C8.1,9.1,7.9,8.9,7.8,8.8c-0.5-0.6-1-1.3-1.3-2L6.2,6.1L6,5.6
									C5.8,5.2,5.4,5,5,5.1H4.9c-0.4,0.2-0.6,0.6-0.4,1c0,0,0,0.1,0.1,0.1l0,0l0,0v0.1l0.3,1c0.2,0.5,0.4,1,0.8,1.5
									C5.8,8.8,5.9,9,6,9C6,9.1,6.1,9.3,6.1,9.4c1,1.3,2.6,2.2,4.2,2.5C10.6,11.8,10.7,11.6,10.8,11.4L10.8,11.4z"/>
								<path id="Fill-10_8_" class="st0" d="M21.3,2.7l-1,0.3c-0.4,0.2-0.9,0.4-1.3,0.7c-0.1,0.1-0.3,0.2-0.3,0.3s-0.3,0.2-0.4,0.3
									c-0.8,0.6-1.3,1.3-1.8,2c-0.2,0.4-0.4,0.8-0.6,1.2c-0.1,0.4-0.2,0.7-0.3,1.1c0.3,0.1,0.4,0.3,0.6,0.3h0.1
									c0.3,0.1,0.4,0.2,0.6,0.3c0.1,0.1,0.3,0.1,0.4,0.1h0.1V9.1c0-0.3,0.1-0.6,0.1-0.9c0.1-0.3,0.2-0.6,0.3-1
									C18,7.1,18.1,7,18.2,6.8c0.2-0.3,0.3-0.5,0.5-0.8C18.8,5.8,19,5.7,19,5.6c0.5-0.5,1.1-0.9,1.8-1.1l1-0.4
									c0.4-0.2,0.6-0.6,0.4-1l0,0C22.1,2.6,21.7,2.4,21.3,2.7C21.3,2.6,21.3,2.6,21.3,2.7C21.3,2.6,21.3,2.6,21.3,2.7
									C21.4,2.6,21.3,2.7,21.3,2.7"/>
								<path id="Fill-12_8_" class="st0" d="M25.6,16l0.4-0.3l0.4-0.3l0.1-0.1l0,0l0.1-0.1c0.2-0.1,0.3-0.2,0.4-0.4
									c0.1-0.2,0.1-0.4,0-0.6L27,14.3c-0.2-0.4-0.6-0.5-1-0.3l-1,0.4c-0.7,0.3-1.5,0.5-2.4,0.4c0.5,0.4,1,1,1.4,1.5
									C24.6,16.3,25.2,16.2,25.6,16"/>
								<g id="Group-16_8_" transform="translate(13.924 25.693)">
									<path id="Fill-14_8_" class="st0" d="M-0.2-8.4c-0.3-0.1-0.4-0.3-0.6-0.3h-0.1C-1.1-8.8-1.4-8.9-1.5-9
										C-1.7-8.7-1.9-8.4-2-8.1c-0.3,0.4-0.4,1-0.6,1.5C-2.8-5.8-2.8-4.9-2.7-4c0,0.1,0.1,0.3,0.1,0.4c0.1,0.1,0.1,0.3,0.1,0.4
										c0.1,0.5,0.3,1,0.4,1.5l0.3,1c0,0,0,0.1,0.1,0.1l0,0l0,0v0.1c0.2,0.4,0.6,0.6,1,0.4h0.1c0.4-0.2,0.5-0.6,0.3-1l-0.4-1
										C-1.1-3-1.2-3.7-1.2-4.4v-0.6c0-0.3,0.1-0.6,0.2-1l0.1-0.5C-0.7-6.7-0.6-7-0.5-7.2C-0.4-7.5-0.2-7.7,0-8l0.1-0.1v-0.1
										C0.1-8.3,0-8.3-0.2-8.4"/>
								</g>
								<path id="Fill-17_8_" class="st0" d="M23.3,16.6c-0.7-0.9-1.6-1.6-2.6-2c-0.5-0.2-1.1-0.4-1.7-0.4c-0.1,0.2-0.2,0.3-0.3,0.5
									v0.1c-0.1,0.3-0.2,0.4-0.3,0.7c-0.1,0.1-0.1,0.3-0.1,0.4c0,0.1,0,0.1-0.1,0.1h0.3c1,0.1,1.9,0.4,2.6,1
									c0.2,0.1,0.4,0.3,0.5,0.4c0.5,0.6,1,1.3,1.3,2l0.3,0.5l0.3,0.6c0.2,0.4,0.6,0.6,1,0.4h0.1c0.4-0.2,0.6-0.6,0.4-1
									c0,0,0-0.1-0.1-0.1l0,0l0,0v-0.1l-0.3-1c-0.2-0.5-0.4-1-0.8-1.5c-0.1-0.1-0.2-0.3-0.3-0.3C23.5,16.9,23.3,16.7,23.3,16.6"/>
								<path id="Fill-19_8_" class="st0" d="M10.5,6c-0.1-0.6-0.1-1.3,0.1-2c-0.4-0.3-1-0.5-1.5-0.8L8.2,2.8H8.1c0,0-0.1,0-0.1-0.1
									l0,0c-0.2-0.1-0.4-0.1-0.6,0C7.2,2.8,7,3,7,3.2v0.1C6.9,3.7,7,4,7.4,4.2l1,0.4C9.2,4.9,9.9,5.4,10.5,6"/>
								<path id="Fill-21_8_" class="st1" d="M13.2,12.6L13.2,12.6c0.1-0.1,0.1-0.1,0.1-0.2v-0.1c0.1-0.1,0.1-0.1,0.1-0.3l0,0
									c0.1-0.1,0.1-0.3,0.1-0.4c0.1-0.1,0.1-0.3,0.1-0.3c-0.6-0.4-1-0.8-1.4-1.3c-0.1-0.1-0.2-0.3-0.3-0.3c0,0.1,0,0.3-0.1,0.3
									c0,0.1-0.1,0.2-0.1,0.3c-0.1,0.1-0.1,0.3-0.1,0.4c-0.1,0.1-0.1,0.3-0.1,0.4c-0.1,0.2-0.1,0.3-0.2,0.4v0.1
									c-0.1,0.1-0.1,0.3-0.2,0.3c-0.1,0.1-0.1,0.3-0.3,0.3s-0.2,0.2-0.3,0.3c-0.1,0.1-0.1,0.2-0.2,0.3c-0.1,0.1-0.1,0.1-0.2,0.3
									c-0.1,0.1-0.1,0.1-0.1,0.1c-0.1,0.1-0.2,0.3-0.3,0.3l-0.1,0.1c-0.3,0.3-0.4,0.3-0.6,0.5c-0.3,0.2-0.5,0.3-0.8,0.4
									c-0.2,0.1-0.4,0.1-0.6,0.3L7.1,15H6.5c-0.7-0.1-1.4-0.3-2.1-0.5l-1-0.4c-0.4-0.1-0.8,0-1,0.3c0,0,0,0.1-0.1,0.1l0,0
									c-0.1,0.4,0.1,0.8,0.4,1h0.1c0,0,0.1,0,0.1,0.1l0,0l1,0.3c0.4,0.2,1,0.4,1.5,0.4c0.1,0.1,0.3,0.1,0.4,0.1
									c0.1,0.1,0.3,0.1,0.4,0.1c0.9,0.1,1.8,0.1,2.7-0.2C9,16.2,9.3,16.1,9.5,16l0,0c0.1-0.1,0.3-0.1,0.4-0.3
									c0.4-0.2,0.7-0.4,1-0.6c0.1-0.1,0.3-0.2,0.3-0.3c0.1-0.1,0.3-0.2,0.3-0.3c0.3-0.3,0.5-0.5,0.7-0.8c0.1-0.1,0.2-0.3,0.3-0.3
									c0.1-0.1,0.1-0.3,0.3-0.3c0.1-0.1,0.1-0.3,0.2-0.3C13,12.9,13,12.8,13.2,12.6"/>
								<path id="Fill-23_8_" class="st0" d="M23.2,6.8c-0.3,0.7-0.7,1.3-1.1,1.9c0.6-0.1,1.3,0,1.9,0.1c0.3-0.4,0.5-0.9,0.7-1.3
									l0.3-1V6.3c0,0,0-0.1,0.1-0.1l0,0c0.1-0.4-0.1-0.8-0.4-1h-0.1c-0.4-0.1-0.8,0.1-1,0.4L23.2,6.8z"/>
								<path id="Fill-25_8_" class="st1" d="M14.1,10.9c0.1,0.1,0.3,0.2,0.3,0.3l0.3,0.2l0.3,0.2c0,0,0.1,0,0.1,0.1l0,0
									c0.1,0.1,0.1,0.1,0.3,0.1h0.1c0.1,0,0.1,0.1,0.1,0.1h0.1c0.1,0.1,0.3,0.1,0.3,0.1c0.1,0.1,0.3,0.1,0.3,0.1
									c0.4-0.5,0.8-1,1.3-1.5c0.1-0.1,0.2-0.1,0.3-0.3c-0.1,0-0.3,0-0.3-0.1c-0.1,0-0.1-0.1-0.3-0.1c-0.1-0.1-0.2-0.1-0.3-0.1
									c-0.1-0.1-0.3-0.1-0.4-0.1c-0.1-0.1-0.3-0.1-0.4-0.2h-0.1c-0.1-0.1-0.3-0.1-0.4-0.3c-0.1-0.1-0.3-0.1-0.3-0.3
									c-0.1-0.1-0.3-0.2-0.3-0.3C15,8.8,15,8.8,14.9,8.7l-0.3-0.3l-0.1-0.1c-0.1-0.1-0.2-0.2-0.3-0.3l-0.2-0.2
									c-0.4-0.4-0.6-0.9-0.8-1.4c-0.1-0.4-0.3-0.8-0.3-1.2c-0.1-0.2-0.1-0.4-0.1-0.6c0-0.8,0.2-1.6,0.5-2.4l0.4-0.9
									c0.2-0.4,0-0.8-0.3-1c0,0-0.1,0-0.1-0.1l0,0c-0.3,0-0.4,0-0.6,0.1c-0.2,0.1-0.4,0.2-0.4,0.4v0.1c0,0,0,0.1-0.1,0.1l0,0
									l-0.3,1c-0.3,0.5-0.3,1-0.5,1.6c-0.1,0.1-0.1,0.3-0.1,0.4c-0.1,0.1-0.1,0.3-0.1,0.4c-0.2,1.7,0.3,3.4,1.2,4.8
									c0.1,0.1,0.2,0.3,0.3,0.3c0.1,0.1,0.1,0.2,0.3,0.3c0.3,0.3,0.5,0.5,0.8,0.7C13.8,10.6,13.9,10.7,14.1,10.9"/>
								<g id="Group-29_8_" transform="translate(21.571 14.178)">
									<path id="Fill-27_8_" class="st1" d="M5.2-3.8L5.2-3.8c-0.1,0-0.1,0-0.1-0.1l-1-0.3c-0.4-0.2-1-0.4-1.5-0.4
										C2.6-4.7,2.4-4.7,2.3-4.7C2.2-4.7,2.1-4.7,1.9-4.7C1-4.9,0.1-4.8-0.8-4.5c-0.3,0.1-0.6,0.1-0.8,0.3C-1.8-4.2-1.9-4.2-2-4
										c-0.4,0.2-0.7,0.4-1,0.6c-0.1,0.1-0.2,0.2-0.3,0.3C-3.4-3.1-3.6-3-3.7-2.9C-3.9-2.6-4.2-2.4-4.4-2
										c-0.1,0.1-0.1,0.3-0.2,0.4c-0.1,0.1-0.1,0.2-0.3,0.3C-4.9-1.3-5-1.1-5-1c-0.1,0.1-0.1,0.3-0.2,0.4l0,0
										c-0.1,0.1-0.1,0.1-0.1,0.2v0.1c-0.1,0.1-0.1,0.1-0.1,0.2v0.1C-5.4,0-5.4,0.2-5.5,0.3c-0.1,0.1-0.1,0.2-0.1,0.3
										C-5,1-4.5,1.4-4.1,1.9C-4.1,2-3.9,2.2-3.9,2.2c0-0.1,0-0.3,0.1-0.3c0-0.1,0.1-0.2,0.1-0.3c0-0.1,0.1-0.3,0-0.4
										C-3.7,1.1-3.7,1-3.6,0.9c0.1-0.2,0.1-0.3,0.2-0.4V0.4c0.1-0.1,0.1-0.3,0.2-0.3C-3.2-0.1-3.1-0.2-3-0.3
										c0.1-0.1,0.1-0.3,0.3-0.3c0.1-0.1,0.1-0.2,0.2-0.3c0.1-0.1,0-0.1,0.1-0.3c0.1-0.1,0.1-0.1,0.1-0.1c0-0.1,0.1-0.3,0.2-0.3
										l0.1-0.1c0.3-0.3,0.4-0.3,0.6-0.5c0.3-0.2,0.5-0.3,0.8-0.4C-0.4-2.6-0.2-2.7,0-2.8L0.9-3h0.6c0.7,0.1,1.4,0.3,2.1,0.5
										l1,0.4c0.4,0.1,0.8,0,1-0.3c0,0,0-0.1,0.1-0.1l0,0C5.8-3.1,5.6-3.6,5.2-3.8"/>
								</g>
								<path id="Fill-30_8_" class="st0" d="M19,20.1c0.1,0.6,0.1,1.3-0.1,2c0.4,0.3,1,0.5,1.5,0.8l1,0.3h0.1c0,0,0.1,0,0.1,0.1
									l0,0c0.2,0.1,0.4,0.1,0.6,0c0.2-0.1,0.4-0.2,0.4-0.4v-0.1c0.1-0.4-0.1-0.8-0.4-1l-1-0.4C20.3,21.1,19.6,20.7,19,20.1"/>
								<path id="Fill-32_8_" class="st0" d="M4.6,19.6L4.6,19.6c0,0.1,0,0.1-0.1,0.1c-0.1,0.4,0.1,0.8,0.4,1h0.1
									c0.4,0.1,0.8-0.1,1-0.4l0.4-1C6.6,18.6,7,18,7.5,17.4c-0.6,0.1-1.3,0-1.9-0.1c-0.3,0.4-0.5,0.9-0.7,1.3L4.6,19.6z"/>
								<path id="Fill-34_8_" class="st1" d="M12.1,15.9c0.1,0.1,0.3,0.1,0.4,0.1c0.1,0.1,0.3,0.1,0.4,0.1c0.1,0.1,0.3,0.1,0.4,0.2
									h0.1c0.1,0.1,0.3,0.1,0.4,0.3c0.1,0.1,0.3,0.1,0.3,0.3c0.1,0.1,0.3,0.2,0.3,0.3c0.1,0.1,0.1,0.1,0.2,0.1
									c0.1,0.1,0.2,0.2,0.3,0.3l0,0c0.1,0.1,0.2,0.2,0.3,0.3l0.2,0.2c0.4,0.4,0.6,0.9,0.8,1.4c0.1,0.4,0.3,0.8,0.3,1.2
									c0.1,0.2,0.1,0.4,0.1,0.6c0,0.8-0.2,1.6-0.5,2.4l-0.4,1c-0.2,0.4,0,0.8,0.3,1c0,0,0.1,0,0.1,0.1l0,0c0.2,0.1,0.4,0.1,0.6,0
									s0.4-0.2,0.4-0.4v-0.1c0,0,0-0.1,0.1-0.1l0,0l0.3-1c0.2-0.5,0.4-1,0.5-1.6c0.1-0.1,0.1-0.3,0.1-0.4C18,22,18,21.9,18,21.7
									c0.2-1.7-0.3-3.4-1.2-4.8c-0.1-0.1-0.2-0.3-0.3-0.3c-0.1-0.1-0.1-0.2-0.3-0.3c-0.3-0.3-0.5-0.5-0.8-0.7
									c-0.1-0.1-0.3-0.2-0.3-0.3C15.2,15.3,15.2,15,15,15l-0.3-0.2l-0.3-0.2c0,0-0.1,0-0.1-0.1l0,0c-0.1-0.1-0.1-0.1-0.3-0.1H14
									c-0.1,0-0.1-0.1-0.1-0.1h-0.1c-0.1-0.1-0.3-0.1-0.3-0.1c-0.1-0.1-0.3-0.1-0.3-0.1c-0.4,0.5-0.8,1-1.3,1.5
									c-0.1,0.1-0.2,0.1-0.3,0.3c0.1,0,0.3,0,0.3,0.1C12,15.8,12,15.8,12.1,15.9"/>
							</g>
						</g>
					</g>
				</g>
			</g>
		</g>
	</g>
</g>
</svg>
